<mxfile host="app.diagrams.net" agent="Mozilla/5.0 (Windows NT 10.0; Win64; x64; rv:138.0) Gecko/20100101 Firefox/138.0" version="27.0.1">
  <diagram name="Page-1" id="_ikFkcq_LUYu6aeP2kcq">
    <mxGraphModel dx="1665" dy="751" grid="1" gridSize="10" guides="1" tooltips="1" connect="1" arrows="1" fold="1" page="1" pageScale="1" pageWidth="850" pageHeight="1100" math="0" shadow="0">
      <root>
        <mxCell id="0" />
        <mxCell id="1" parent="0" />
        <mxCell id="QsuhGXAJxrKneiQiyuK_-1" value="" style="shape=umlLifeline;perimeter=lifelinePerimeter;whiteSpace=wrap;html=1;container=1;dropTarget=0;collapsible=0;recursiveResize=0;outlineConnect=0;portConstraint=eastwest;newEdgeStyle={&quot;curved&quot;:0,&quot;rounded&quot;:0};participant=umlActor;" vertex="1" parent="1">
          <mxGeometry x="150" y="790" width="20" height="920" as="geometry" />
        </mxCell>
        <mxCell id="QsuhGXAJxrKneiQiyuK_-2" value="" style="html=1;points=[[0,0,0,0,5],[0,1,0,0,-5],[1,0,0,0,5],[1,1,0,0,-5]];perimeter=orthogonalPerimeter;outlineConnect=0;targetShapes=umlLifeline;portConstraint=eastwest;newEdgeStyle={&quot;curved&quot;:0,&quot;rounded&quot;:0};" vertex="1" parent="QsuhGXAJxrKneiQiyuK_-1">
          <mxGeometry x="5" y="90" width="10" height="610" as="geometry" />
        </mxCell>
        <mxCell id="QsuhGXAJxrKneiQiyuK_-3" value="" style="html=1;verticalAlign=bottom;endArrow=none;dashed=1;labelBackgroundColor=none;fontFamily=Verdana;fontSize=12;elbow=vertical;startFill=0;entryX=0.545;entryY=1;entryDx=0;entryDy=0;entryPerimeter=0;" edge="1" parent="1" source="QsuhGXAJxrKneiQiyuK_-33" target="QsuhGXAJxrKneiQiyuK_-49">
          <mxGeometry relative="1" as="geometry">
            <mxPoint x="282" y="851.28" as="targetPoint" />
            <mxPoint x="302" y="1150" as="sourcePoint" />
          </mxGeometry>
        </mxCell>
        <mxCell id="QsuhGXAJxrKneiQiyuK_-4" value="" style="html=1;verticalAlign=bottom;endArrow=none;dashed=1;labelBackgroundColor=none;fontFamily=Verdana;fontSize=12;elbow=vertical;startFill=0;entryX=0.586;entryY=1.027;entryDx=0;entryDy=0;entryPerimeter=0;exitX=0.691;exitY=0.988;exitDx=0;exitDy=0;exitPerimeter=0;" edge="1" parent="1" source="QsuhGXAJxrKneiQiyuK_-35">
          <mxGeometry relative="1" as="geometry">
            <mxPoint x="598.5999999999999" y="852.1600000000001" as="targetPoint" />
            <mxPoint x="599" y="1160" as="sourcePoint" />
          </mxGeometry>
        </mxCell>
        <mxCell id="QsuhGXAJxrKneiQiyuK_-7" value="jButton1ActionPrformed()" style="html=1;verticalAlign=bottom;endArrow=block;curved=0;rounded=0;entryX=0.064;entryY=0.006;entryDx=0;entryDy=0;entryPerimeter=0;" edge="1" parent="1" target="QsuhGXAJxrKneiQiyuK_-33">
          <mxGeometry width="80" relative="1" as="geometry">
            <mxPoint x="160" y="880" as="sourcePoint" />
            <mxPoint x="290" y="880" as="targetPoint" />
          </mxGeometry>
        </mxCell>
        <mxCell id="QsuhGXAJxrKneiQiyuK_-8" value="" style="html=1;verticalAlign=bottom;endArrow=none;dashed=1;labelBackgroundColor=none;fontFamily=Verdana;fontSize=12;elbow=vertical;startFill=0;entryX=0.5;entryY=1;entryDx=0;entryDy=0;" edge="1" parent="1" source="QsuhGXAJxrKneiQiyuK_-10">
          <mxGeometry relative="1" as="geometry">
            <mxPoint x="450" y="850" as="targetPoint" />
            <mxPoint x="450" y="1150" as="sourcePoint" />
          </mxGeometry>
        </mxCell>
        <mxCell id="QsuhGXAJxrKneiQiyuK_-9" value="" style="html=1;verticalAlign=bottom;endArrow=none;dashed=1;labelBackgroundColor=none;fontFamily=Verdana;fontSize=12;elbow=vertical;startFill=0;entryX=0.5;entryY=1;entryDx=0;entryDy=0;exitX=0.394;exitY=1;exitDx=0;exitDy=0;exitPerimeter=0;" edge="1" parent="1" source="QsuhGXAJxrKneiQiyuK_-13" target="QsuhGXAJxrKneiQiyuK_-10">
          <mxGeometry relative="1" as="geometry">
            <mxPoint x="450" y="850" as="targetPoint" />
            <mxPoint x="450" y="1150" as="sourcePoint" />
          </mxGeometry>
        </mxCell>
        <mxCell id="QsuhGXAJxrKneiQiyuK_-10" value="" style="html=1;points=[[0,0,0,0,5],[0,1,0,0,-5],[1,0,0,0,5],[1,1,0,0,-5]];perimeter=orthogonalPerimeter;outlineConnect=0;targetShapes=umlLifeline;portConstraint=eastwest;newEdgeStyle={&quot;curved&quot;:0,&quot;rounded&quot;:0};" vertex="1" parent="1">
          <mxGeometry x="445" y="940" width="10" height="360" as="geometry" />
        </mxCell>
        <mxCell id="QsuhGXAJxrKneiQiyuK_-11" value="fetchWeatherInfo()" style="html=1;verticalAlign=bottom;endArrow=block;curved=0;rounded=0;entryX=0;entryY=0;entryDx=0;entryDy=5;entryPerimeter=0;" edge="1" parent="1" source="QsuhGXAJxrKneiQiyuK_-33" target="QsuhGXAJxrKneiQiyuK_-10">
          <mxGeometry width="80" relative="1" as="geometry">
            <mxPoint x="305" y="910" as="sourcePoint" />
            <mxPoint x="441" y="911" as="targetPoint" />
            <mxPoint as="offset" />
          </mxGeometry>
        </mxCell>
        <mxCell id="QsuhGXAJxrKneiQiyuK_-12" value="WeatherData" style="html=1;verticalAlign=bottom;endArrow=open;dashed=1;endSize=8;curved=0;rounded=0;" edge="1" parent="1" target="QsuhGXAJxrKneiQiyuK_-33">
          <mxGeometry x="0.0074" relative="1" as="geometry">
            <mxPoint x="440" y="1020" as="sourcePoint" />
            <mxPoint x="500" y="1040" as="targetPoint" />
            <mxPoint as="offset" />
          </mxGeometry>
        </mxCell>
        <mxCell id="QsuhGXAJxrKneiQiyuK_-13" value="Alternative" style="shape=umlFrame;whiteSpace=wrap;html=1;pointerEvents=0;recursiveResize=0;container=1;collapsible=0;width=170;" vertex="1" parent="1">
          <mxGeometry x="40" y="1080" width="1040" height="760" as="geometry" />
        </mxCell>
        <mxCell id="QsuhGXAJxrKneiQiyuK_-14" value="&lt;div&gt;If weather is&amp;nbsp;&lt;/div&gt;&lt;div&gt;BAD&lt;/div&gt;" style="text;html=1;" vertex="1" parent="QsuhGXAJxrKneiQiyuK_-13">
          <mxGeometry width="100" height="20" relative="1" as="geometry">
            <mxPoint x="20" y="40" as="offset" />
          </mxGeometry>
        </mxCell>
        <mxCell id="QsuhGXAJxrKneiQiyuK_-15" value="&lt;div&gt;If weather is &lt;br&gt;&lt;/div&gt;&lt;div&gt;GOOD&lt;/div&gt;" style="line;strokeWidth=1;dashed=1;labelPosition=center;verticalLabelPosition=bottom;align=left;verticalAlign=top;spacingLeft=20;spacingTop=15;html=1;whiteSpace=wrap;" vertex="1" parent="QsuhGXAJxrKneiQiyuK_-13">
          <mxGeometry y="125" width="1020" height="10" as="geometry" />
        </mxCell>
        <mxCell id="QsuhGXAJxrKneiQiyuK_-16" value="" style="html=1;verticalAlign=bottom;endArrow=none;dashed=1;labelBackgroundColor=none;fontFamily=Verdana;fontSize=12;elbow=vertical;startFill=0;exitX=0.237;exitY=1.01;exitDx=0;exitDy=0;exitPerimeter=0;entryX=1;entryY=1;entryDx=0;entryDy=-5;entryPerimeter=0;" edge="1" parent="QsuhGXAJxrKneiQiyuK_-13" source="QsuhGXAJxrKneiQiyuK_-13">
          <mxGeometry relative="1" as="geometry">
            <mxPoint x="241.68" y="202" as="targetPoint" />
            <mxPoint x="239.99999999999994" y="250" as="sourcePoint" />
          </mxGeometry>
        </mxCell>
        <mxCell id="QsuhGXAJxrKneiQiyuK_-17" value="CardLayout.show()" style="html=1;verticalAlign=bottom;endArrow=block;curved=0;rounded=0;" edge="1" parent="QsuhGXAJxrKneiQiyuK_-13" source="QsuhGXAJxrKneiQiyuK_-33" target="QsuhGXAJxrKneiQiyuK_-18">
          <mxGeometry width="80" relative="1" as="geometry">
            <mxPoint x="240" y="170" as="sourcePoint" />
            <mxPoint x="530" y="170" as="targetPoint" />
            <mxPoint as="offset" />
          </mxGeometry>
        </mxCell>
        <mxCell id="QsuhGXAJxrKneiQiyuK_-18" value="" style="html=1;points=[[0,0,0,0,5],[0,1,0,0,-5],[1,0,0,0,5],[1,1,0,0,-5]];perimeter=orthogonalPerimeter;outlineConnect=0;targetShapes=umlLifeline;portConstraint=eastwest;newEdgeStyle={&quot;curved&quot;:0,&quot;rounded&quot;:0};" vertex="1" parent="QsuhGXAJxrKneiQiyuK_-13">
          <mxGeometry x="690" y="160" width="10" height="500" as="geometry" />
        </mxCell>
        <mxCell id="QsuhGXAJxrKneiQiyuK_-19" value="" style="html=1;verticalAlign=bottom;endArrow=none;dashed=1;labelBackgroundColor=none;fontFamily=Verdana;fontSize=12;elbow=vertical;startFill=0;entryX=0.6;entryY=1;entryDx=0;entryDy=0;entryPerimeter=0;exitX=0.669;exitY=1.002;exitDx=0;exitDy=0;exitPerimeter=0;" edge="1" parent="QsuhGXAJxrKneiQiyuK_-13" source="QsuhGXAJxrKneiQiyuK_-13" target="QsuhGXAJxrKneiQiyuK_-18">
          <mxGeometry relative="1" as="geometry">
            <mxPoint x="690" y="-220" as="targetPoint" />
            <mxPoint x="693" y="252" as="sourcePoint" />
          </mxGeometry>
        </mxCell>
        <mxCell id="QsuhGXAJxrKneiQiyuK_-20" value="" style="html=1;align=left;spacingLeft=2;endArrow=block;rounded=0;edgeStyle=orthogonalEdgeStyle;curved=0;rounded=0;" edge="1" parent="QsuhGXAJxrKneiQiyuK_-13">
          <mxGeometry relative="1" as="geometry">
            <mxPoint x="560" y="70" as="sourcePoint" />
            <Array as="points">
              <mxPoint x="590" y="100" />
            </Array>
            <mxPoint x="565" y="100" as="targetPoint" />
          </mxGeometry>
        </mxCell>
        <mxCell id="QsuhGXAJxrKneiQiyuK_-21" value="PresentInfo()" style="text;html=1;align=center;verticalAlign=middle;resizable=0;points=[];autosize=1;strokeColor=none;fillColor=none;" vertex="1" parent="QsuhGXAJxrKneiQiyuK_-13">
          <mxGeometry x="580" y="70" width="90" height="30" as="geometry" />
        </mxCell>
        <mxCell id="QsuhGXAJxrKneiQiyuK_-22" value="" style="html=1;align=left;spacingLeft=2;endArrow=block;rounded=0;edgeStyle=orthogonalEdgeStyle;curved=0;rounded=0;" edge="1" parent="QsuhGXAJxrKneiQiyuK_-13" target="QsuhGXAJxrKneiQiyuK_-18">
          <mxGeometry relative="1" as="geometry">
            <mxPoint x="700" y="240" as="sourcePoint" />
            <Array as="points">
              <mxPoint x="730" y="240" />
              <mxPoint x="730" y="270" />
            </Array>
            <mxPoint x="705" y="270" as="targetPoint" />
          </mxGeometry>
        </mxCell>
        <mxCell id="QsuhGXAJxrKneiQiyuK_-23" value="WeatherData" style="html=1;verticalAlign=bottom;endArrow=open;dashed=1;endSize=8;curved=0;rounded=0;exitX=1;exitY=1;exitDx=0;exitDy=-5;exitPerimeter=0;" edge="1" parent="QsuhGXAJxrKneiQiyuK_-13">
          <mxGeometry x="0.0074" relative="1" as="geometry">
            <mxPoint x="395" y="230" as="sourcePoint" />
            <mxPoint x="690" y="230" as="targetPoint" />
            <mxPoint as="offset" />
          </mxGeometry>
        </mxCell>
        <mxCell id="QsuhGXAJxrKneiQiyuK_-24" value="fetchWeatherInfo()" style="html=1;verticalAlign=bottom;endArrow=block;curved=0;rounded=0;" edge="1" parent="QsuhGXAJxrKneiQiyuK_-13">
          <mxGeometry width="80" relative="1" as="geometry">
            <mxPoint x="690" y="200" as="sourcePoint" />
            <mxPoint x="420" y="200" as="targetPoint" />
            <mxPoint as="offset" />
          </mxGeometry>
        </mxCell>
        <mxCell id="QsuhGXAJxrKneiQiyuK_-25" value="PresentInfo()" style="text;html=1;align=center;verticalAlign=middle;resizable=0;points=[];autosize=1;strokeColor=none;fillColor=none;" vertex="1" parent="QsuhGXAJxrKneiQiyuK_-13">
          <mxGeometry x="720" y="238" width="90" height="30" as="geometry" />
        </mxCell>
        <mxCell id="QsuhGXAJxrKneiQiyuK_-26" value="Interaction heading" style="shape=umlFrame;whiteSpace=wrap;html=1;pointerEvents=0;recursiveResize=0;container=1;collapsible=0;width=170;" vertex="1" parent="QsuhGXAJxrKneiQiyuK_-13">
          <mxGeometry x="30" y="430" width="980" height="260" as="geometry" />
        </mxCell>
        <mxCell id="QsuhGXAJxrKneiQiyuK_-27" value="&lt;div&gt;User Chooses&lt;/div&gt;&lt;div&gt;Morning Trip&lt;/div&gt;" style="text;html=1;" vertex="1" parent="QsuhGXAJxrKneiQiyuK_-26">
          <mxGeometry width="100" height="20" relative="1" as="geometry">
            <mxPoint y="60" as="offset" />
          </mxGeometry>
        </mxCell>
        <mxCell id="QsuhGXAJxrKneiQiyuK_-28" value="&lt;div&gt;User chooses&amp;nbsp;&lt;/div&gt;&lt;div&gt;Night Trip&lt;/div&gt;" style="line;strokeWidth=1;dashed=1;labelPosition=center;verticalLabelPosition=bottom;align=left;verticalAlign=top;spacingLeft=20;spacingTop=15;html=1;whiteSpace=wrap;" vertex="1" parent="QsuhGXAJxrKneiQiyuK_-26">
          <mxGeometry x="-20" y="140" width="1000" height="10" as="geometry" />
        </mxCell>
        <mxCell id="QsuhGXAJxrKneiQiyuK_-29" value="CardLayout.show()" style="html=1;verticalAlign=bottom;endArrow=block;curved=0;rounded=0;entryX=0;entryY=0;entryDx=0;entryDy=5;entryPerimeter=0;" edge="1" parent="QsuhGXAJxrKneiQiyuK_-26">
          <mxGeometry width="80" relative="1" as="geometry">
            <mxPoint x="670" y="190" as="sourcePoint" />
            <mxPoint x="860" y="190" as="targetPoint" />
            <mxPoint as="offset" />
          </mxGeometry>
        </mxCell>
        <mxCell id="QsuhGXAJxrKneiQiyuK_-30" value="CreateTrip()" style="html=1;verticalAlign=bottom;endArrow=block;curved=0;rounded=0;entryX=0;entryY=0.5;entryDx=0;entryDy=0;" edge="1" parent="QsuhGXAJxrKneiQiyuK_-26" target="QsuhGXAJxrKneiQiyuK_-43">
          <mxGeometry width="80" relative="1" as="geometry">
            <mxPoint x="870" y="189" as="sourcePoint" />
            <mxPoint x="1060" y="189" as="targetPoint" />
            <mxPoint as="offset" />
          </mxGeometry>
        </mxCell>
        <mxCell id="QsuhGXAJxrKneiQiyuK_-31" value="UserChoice" style="html=1;verticalAlign=bottom;endArrow=open;dashed=1;endSize=8;curved=0;rounded=0;entryX=0;entryY=0.667;entryDx=0;entryDy=0;entryPerimeter=0;" edge="1" parent="QsuhGXAJxrKneiQiyuK_-13">
          <mxGeometry x="0.0074" relative="1" as="geometry">
            <mxPoint x="140" y="320" as="sourcePoint" />
            <mxPoint x="705" y="320" as="targetPoint" />
            <mxPoint as="offset" />
          </mxGeometry>
        </mxCell>
        <mxCell id="QsuhGXAJxrKneiQiyuK_-32" value="fetchUserChoice()" style="html=1;verticalAlign=bottom;endArrow=block;curved=0;rounded=0;" edge="1" parent="QsuhGXAJxrKneiQiyuK_-13">
          <mxGeometry width="80" relative="1" as="geometry">
            <mxPoint x="690" y="370" as="sourcePoint" />
            <mxPoint x="125" y="370" as="targetPoint" />
            <mxPoint as="offset" />
          </mxGeometry>
        </mxCell>
        <mxCell id="QsuhGXAJxrKneiQiyuK_-33" value="" style="html=1;points=[[0,0,0,0,5],[0,1,0,0,-5],[1,0,0,0,5],[1,1,0,0,-5]];perimeter=orthogonalPerimeter;outlineConnect=0;targetShapes=umlLifeline;portConstraint=eastwest;newEdgeStyle={&quot;curved&quot;:0,&quot;rounded&quot;:0};" vertex="1" parent="QsuhGXAJxrKneiQiyuK_-13">
          <mxGeometry x="240" y="-200" width="10" height="410" as="geometry" />
        </mxCell>
        <mxCell id="QsuhGXAJxrKneiQiyuK_-34" value="" style="html=1;verticalAlign=bottom;endArrow=none;dashed=1;labelBackgroundColor=none;fontFamily=Verdana;fontSize=12;elbow=vertical;startFill=0;entryX=0.586;entryY=1.027;entryDx=0;entryDy=0;entryPerimeter=0;exitX=0.535;exitY=1.008;exitDx=0;exitDy=0;exitPerimeter=0;" edge="1" parent="1" source="QsuhGXAJxrKneiQiyuK_-13" target="QsuhGXAJxrKneiQiyuK_-35">
          <mxGeometry relative="1" as="geometry">
            <mxPoint x="599" y="852" as="targetPoint" />
            <mxPoint x="606" y="1307" as="sourcePoint" />
          </mxGeometry>
        </mxCell>
        <mxCell id="QsuhGXAJxrKneiQiyuK_-35" value="" style="html=1;points=[[0,0,0,0,5],[0,1,0,0,-5],[1,0,0,0,5],[1,1,0,0,-5]];perimeter=orthogonalPerimeter;outlineConnect=0;targetShapes=umlLifeline;portConstraint=eastwest;newEdgeStyle={&quot;curved&quot;:0,&quot;rounded&quot;:0};" vertex="1" parent="1">
          <mxGeometry x="595" y="1070" width="10" height="110" as="geometry" />
        </mxCell>
        <mxCell id="QsuhGXAJxrKneiQiyuK_-36" value="fetchWeatherInfo()" style="html=1;verticalAlign=bottom;endArrow=block;curved=0;rounded=0;exitX=0.5;exitY=0.455;exitDx=0;exitDy=0;exitPerimeter=0;" edge="1" parent="1" source="QsuhGXAJxrKneiQiyuK_-35" target="QsuhGXAJxrKneiQiyuK_-10">
          <mxGeometry width="80" relative="1" as="geometry">
            <mxPoint x="430" y="1130" as="sourcePoint" />
            <mxPoint x="570" y="1130" as="targetPoint" />
            <mxPoint as="offset" />
          </mxGeometry>
        </mxCell>
        <mxCell id="QsuhGXAJxrKneiQiyuK_-37" value="WeatherData" style="html=1;verticalAlign=bottom;endArrow=open;dashed=1;endSize=8;curved=0;rounded=0;exitX=1.5;exitY=0.571;exitDx=0;exitDy=0;exitPerimeter=0;" edge="1" parent="1" source="QsuhGXAJxrKneiQiyuK_-10" target="QsuhGXAJxrKneiQiyuK_-35">
          <mxGeometry x="0.0074" relative="1" as="geometry">
            <mxPoint x="575" y="1170" as="sourcePoint" />
            <mxPoint x="440" y="1170" as="targetPoint" />
            <mxPoint as="offset" />
          </mxGeometry>
        </mxCell>
        <mxCell id="QsuhGXAJxrKneiQiyuK_-38" value="CardLayout.show()" style="html=1;verticalAlign=bottom;endArrow=block;curved=0;rounded=0;entryX=0;entryY=0.182;entryDx=0;entryDy=0;entryPerimeter=0;" edge="1" parent="1" source="QsuhGXAJxrKneiQiyuK_-33" target="QsuhGXAJxrKneiQiyuK_-35">
          <mxGeometry width="80" relative="1" as="geometry">
            <mxPoint x="285" y="1110" as="sourcePoint" />
            <mxPoint x="575" y="1110" as="targetPoint" />
          </mxGeometry>
        </mxCell>
        <mxCell id="QsuhGXAJxrKneiQiyuK_-41" value="CardLayout.show()" style="html=1;verticalAlign=bottom;endArrow=block;curved=0;rounded=0;entryX=0;entryY=0;entryDx=0;entryDy=5;entryPerimeter=0;" edge="1" parent="1" source="QsuhGXAJxrKneiQiyuK_-18" target="QsuhGXAJxrKneiQiyuK_-40">
          <mxGeometry width="80" relative="1" as="geometry">
            <mxPoint x="660" y="1600" as="sourcePoint" />
            <mxPoint x="1100" y="1600" as="targetPoint" />
            <mxPoint as="offset" />
          </mxGeometry>
        </mxCell>
        <mxCell id="QsuhGXAJxrKneiQiyuK_-42" value=";MorningTrip" style="html=1;whiteSpace=wrap;" vertex="1" parent="1">
          <mxGeometry x="1130" y="1540" width="110" height="50" as="geometry" />
        </mxCell>
        <mxCell id="QsuhGXAJxrKneiQiyuK_-43" value=":NightTrip" style="html=1;whiteSpace=wrap;" vertex="1" parent="1">
          <mxGeometry x="1140" y="1670" width="110" height="50" as="geometry" />
        </mxCell>
        <mxCell id="QsuhGXAJxrKneiQiyuK_-44" value="CreateTrip()" style="html=1;verticalAlign=bottom;endArrow=block;curved=0;rounded=0;entryX=0;entryY=0;entryDx=0;entryDy=5;entryPerimeter=0;" edge="1" parent="1">
          <mxGeometry width="80" relative="1" as="geometry">
            <mxPoint x="940" y="1564.41" as="sourcePoint" />
            <mxPoint x="1130" y="1564.41" as="targetPoint" />
            <mxPoint as="offset" />
          </mxGeometry>
        </mxCell>
        <mxCell id="QsuhGXAJxrKneiQiyuK_-47" value=":Bad Weather report page" style="html=1;whiteSpace=wrap;" vertex="1" parent="1">
          <mxGeometry x="545" y="800" width="110" height="50" as="geometry" />
        </mxCell>
        <mxCell id="QsuhGXAJxrKneiQiyuK_-48" value=":Weather Info" style="html=1;whiteSpace=wrap;" vertex="1" parent="1">
          <mxGeometry x="400" y="800" width="110" height="50" as="geometry" />
        </mxCell>
        <mxCell id="QsuhGXAJxrKneiQiyuK_-49" value=":Weather Report Page" style="html=1;whiteSpace=wrap;" vertex="1" parent="1">
          <mxGeometry x="220" y="790" width="110" height="50" as="geometry" />
        </mxCell>
        <mxCell id="QsuhGXAJxrKneiQiyuK_-50" value="Reviewed by Kostas" style="text;html=1;align=center;verticalAlign=middle;whiteSpace=wrap;rounded=0;" vertex="1" parent="1">
          <mxGeometry x="1240" y="770" width="100" height="70" as="geometry" />
        </mxCell>
        <mxCell id="QsuhGXAJxrKneiQiyuK_-51" value=":Selectionpage" style="shape=umlLifeline;perimeter=lifelinePerimeter;whiteSpace=wrap;html=1;container=1;dropTarget=0;collapsible=0;recursiveResize=0;outlineConnect=0;portConstraint=eastwest;newEdgeStyle={&quot;curved&quot;:0,&quot;rounded&quot;:0};" vertex="1" parent="1">
          <mxGeometry x="884" y="800" width="100" height="1010" as="geometry" />
        </mxCell>
        <mxCell id="QsuhGXAJxrKneiQiyuK_-40" value="" style="html=1;points=[[0,0,0,0,5],[0,1,0,0,-5],[1,0,0,0,5],[1,1,0,0,-5]];perimeter=orthogonalPerimeter;outlineConnect=0;targetShapes=umlLifeline;portConstraint=eastwest;newEdgeStyle={&quot;curved&quot;:0,&quot;rounded&quot;:0};" vertex="1" parent="QsuhGXAJxrKneiQiyuK_-51">
          <mxGeometry x="45" y="740" width="10" height="220" as="geometry" />
        </mxCell>
        <mxCell id="QsuhGXAJxrKneiQiyuK_-52" value=":Object" style="shape=umlLifeline;perimeter=lifelinePerimeter;whiteSpace=wrap;html=1;container=1;dropTarget=0;collapsible=0;recursiveResize=0;outlineConnect=0;portConstraint=eastwest;newEdgeStyle={&quot;curved&quot;:0,&quot;rounded&quot;:0};" vertex="1" parent="1">
          <mxGeometry x="1210" y="905" width="100" height="300" as="geometry" />
        </mxCell>
        <mxCell id="QsuhGXAJxrKneiQiyuK_-53" value=":Good Weather report page" style="shape=umlLifeline;perimeter=lifelinePerimeter;whiteSpace=wrap;html=1;container=1;dropTarget=0;collapsible=0;recursiveResize=0;outlineConnect=0;portConstraint=eastwest;newEdgeStyle={&quot;curved&quot;:0,&quot;rounded&quot;:0};" vertex="1" parent="1">
          <mxGeometry x="710" y="810" width="100" height="420" as="geometry" />
        </mxCell>
      </root>
    </mxGraphModel>
  </diagram>
</mxfile>
